<?xml version="1.0" standalone="no"?>
<!DOCTYPE svg PUBLIC "-//W3C//DTD SVG 20010904//EN"
 "http://www.w3.org/TR/2001/REC-SVG-20010904/DTD/svg10.dtd">
<svg version="1.0" xmlns="http://www.w3.org/2000/svg"
 width="1600.000000pt" height="1158.000000pt" viewBox="0 0 1600.000000 1158.000000"
 preserveAspectRatio="xMidYMid meet">
<metadata>
Created by potrace 1.16, written by Peter Selinger 2001-2019
</metadata>
<g transform="translate(0.000000,1158.000000) scale(0.100000,-0.100000)"
fill="#000000" stroke="none">
<path d="M5920 10465 l0 -585 -1290 0 -1290 0 0 438 0 439 -137 6 c-227 11
-1953 8 -1953 -3 0 -6 -33 -10 -80 -10 l-80 0 0 -2645 0 -2645 -295 0 -295 0
0 -1355 0 -1355 1580 0 1580 0 0 -1140 0 -1140 2240 0 2240 0 0 265 0 265
3750 0 3750 0 0 5025 0 5025 -4860 0 -4860 0 0 -585z m630 130 l0 -205 530 0
530 0 0 205 0 205 430 0 430 0 0 -1500 0 -1500 885 0 c583 0 885 -3 885 -10 0
-7 428 -10 1265 -10 l1265 0 0 -828 0 -828 -2435 0 -2435 1 0 -342 0 -343
-490 0 c-320 0 -490 3 -490 10 0 7 -947 10 -2820 10 l-2820 0 0 680 0 680
2426 0 2425 0 -3 105 c-2 58 0 105 5 105 4 0 7 270 7 600 0 527 -2 600 -15
600 -13 0 -15 149 -15 1285 l0 1285 220 0 220 0 0 -205z m6220 -1215 l0 -1420
-805 0 -805 0 0 280 0 280 -460 0 -460 0 0 -280 0 -280 -786 -2 c-432 -2 -788
-1 -790 1 -2 2 -4 643 -4 1423 l0 1418 2055 0 2055 0 0 -1420z m2690 -3370 l0
-4790 -1240 0 -1240 0 0 2610 0 2610 283 2 282 3 0 670 0 670 -282 3 -283 2 0
1505 0 1505 1240 0 1240 0 0 -4790z m-12350 2775 l0 -1725 -190 0 -190 0 0
125 0 125 -357 -2 -358 -3 -3 -127 -3 -128 -364 0 -365 0 0 1730 0 1730 915 0
915 0 0 -1725z m2810 145 l0 -700 -161 0 -161 0 2 -27 c1 -16 2 -281 1 -590
l-1 -563 -1130 0 -1130 0 0 1290 0 1290 1290 0 1290 0 0 -700z m4512 -3252 l3
-253 623 -3 622 -2 0 255 0 255 545 0 545 0 0 -2355 0 -2355 -1095 0 -1095 0
0 410 c0 267 3 410 10 410 7 0 10 213 10 620 l0 620 -540 0 c-473 0 -540 2
-540 15 0 13 -83 15 -690 15 l-690 0 0 1310 0 1310 1145 0 1145 0 2 -252z
m-7182 -883 l0 -435 235 0 235 0 0 -665 0 -665 -1497 -1 c-824 -1 -1508 -3
-1520 -4 l-23 -2 0 1103 0 1104 1285 0 1285 0 0 -435z m3650 195 l0 -240 500
0 500 0 0 -1287 0 -1286 -505 7 c-277 3 -714 3 -970 0 l-465 -7 0 -69 c0 -39
4 -68 10 -68 7 0 10 -223 10 -650 l0 -650 -1040 0 -1040 0 0 1593 c0 875 3
1886 7 2245 l6 652 1494 0 1493 0 0 -240z m2590 -2430 l0 -520 470 0 470 0 0
-410 0 -410 -1145 0 -1145 0 0 930 0 930 675 0 675 0 0 -520z m-2940 -625 l0
-105 355 0 355 0 0 105 0 105 320 0 320 0 0 -650 0 -650 -890 0 -890 0 0 650
0 650 215 0 215 0 0 -105z"/>
</g>
</svg>
