<?xml version="1.0" standalone="no"?>
<!DOCTYPE svg PUBLIC "-//W3C//DTD SVG 20010904//EN"
 "http://www.w3.org/TR/2001/REC-SVG-20010904/DTD/svg10.dtd">
<svg version="1.0" xmlns="http://www.w3.org/2000/svg"
 width="746.000000pt" height="490.000000pt" viewBox="0 0 746.000000 490.000000"
 preserveAspectRatio="xMidYMid meet">
<metadata>
Created by potrace 1.16, written by Peter Selinger 2001-2019
</metadata>
<g transform="translate(0.000000,490.000000) scale(0.100000,-0.100000)"
fill="#000000" stroke="none">
<path d="M710 4890 c0 -6 -102 -10 -285 -10 l-285 0 0 -1300 0 -1300 1523 -2
1522 -3 3 -1093 2 -1092 2135 0 2135 0 0 2405 0 2405 -94 0 c-85 0 -94 -2 -99
-20 -5 -20 -14 -20 -476 -20 -307 0 -471 3 -471 10 0 7 -912 10 -2715 10
-1803 0 -2715 3 -2715 10 0 6 -37 10 -90 10 -53 0 -90 -4 -90 -10z m2080 -645
l0 -415 225 0 225 0 0 -645 0 -645 -1465 0 -1465 0 0 1060 0 1060 1240 0 1240
0 0 -415z m3510 190 l0 -225 483 -2 482 -3 3 -1239 2 -1239 -491 7 c-270 3
-690 3 -935 0 l-444 -7 0 -63 c0 -35 5 -66 10 -69 6 -4 10 -225 10 -631 l0
-624 -1005 0 -1005 0 0 1538 c0 845 3 1817 7 2160 l6 622 1439 0 1438 0 0
-225z m-332 -2942 l3 -103 339 0 340 0 0 105 0 105 308 -2 307 -3 3 -627 2
-628 -860 0 -860 0 0 630 0 630 208 -2 207 -3 3 -102z"/>
</g>
</svg>
