<?xml version="1.0" standalone="no"?>
<!DOCTYPE svg PUBLIC "-//W3C//DTD SVG 20010904//EN"
 "http://www.w3.org/TR/2001/REC-SVG-20010904/DTD/svg10.dtd">
<svg version="1.0" xmlns="http://www.w3.org/2000/svg"
 width="744.000000pt" height="748.000000pt" viewBox="0 0 744.000000 748.000000"
 preserveAspectRatio="xMidYMid meet">
<metadata>
Created by potrace 1.16, written by Peter Selinger 2001-2019
</metadata>
<g transform="translate(0.000000,748.000000) scale(0.100000,-0.100000)"
fill="#000000" stroke="none">
<path d="M7000 7442 l0 -38 -3470 0 -3470 1 0 -487 0 -488 -30 0 -30 0 0 -490
0 -490 30 0 30 0 0 -1829 0 -1828 -30 -6 -30 -6 0 -96 0 -95 30 0 30 0 0 -795
0 -795 170 0 170 0 0 55 0 55 3520 0 3520 0 0 156 0 156 -72 -4 -73 -3 -3
3533 -2 3532 -145 0 -145 0 0 -38z m-3330 -672 c0 -198 3 -360 8 -360 4 0 402
-1 885 -3 l877 -2 0 363 0 362 780 0 780 0 -2 -3355 -3 -3355 -1547 0 c-852 0
-1552 0 -1558 0 -7 0 -10 202 -10 585 0 383 3 585 10 585 7 0 10 300 10 880
l0 880 -764 0 -764 0 -5 23 -6 22 -981 0 c-539 0 -980 3 -980 8 0 4 0 844 0
1867 l0 1860 1635 0 1635 0 0 -360z m-1342 -4442 l2 -738 668 -2 667 -3 3
-582 c2 -578 2 -583 -18 -583 -11 0 -733 0 -1605 0 -872 0 -1598 0 -1615 0
l-30 0 0 1325 0 1325 963 -2 962 -3 3 -737z"/>
</g>
</svg>
