<?xml version="1.0" standalone="no"?>
<!DOCTYPE svg PUBLIC "-//W3C//DTD SVG 20010904//EN"
 "http://www.w3.org/TR/2001/REC-SVG-20010904/DTD/svg10.dtd">
<svg version="1.0" xmlns="http://www.w3.org/2000/svg"
 width="1468.000000pt" height="436.000000pt" viewBox="0 0 1468.000000 436.000000"
 preserveAspectRatio="xMidYMid meet">
<metadata>
Created by potrace 1.16, written by Peter Selinger 2001-2019
</metadata>
<g transform="translate(0.000000,436.000000) scale(0.100000,-0.100000)"
fill="#000000" stroke="none">
<path d="M190 2270 l0 -2090 7155 0 7155 0 0 2090 0 2090 -175 0 -175 0 0 -50
0 -50 -2025 0 -2025 0 0 50 0 50 -124 0 -125 0 -3 -47 -3 -48 -1182 -3 -1183
-2 0 50 0 50 -135 0 -135 0 0 -50 0 -50 -3357 2 -3357 3 3 48 3 47 -156 0
-156 0 0 -2090z m7750 1295 l0 -405 960 0 960 0 0 405 0 405 2145 0 2145 0 0
-1770 0 -1770 -6825 0 -6825 0 -1 1730 c0 952 -1 1746 -1 1765 0 19 1 37 1 40
1 3 1675 5 3721 5 l3720 0 0 -405z"/>
</g>
</svg>
